<svg xmlns="http://www.w3.org/2000/svg" xmlns:lucid="lucid" xmlns:xlink="http://www.w3.org/1999/xlink" viewBox="0 0 500 383">
  <g transform="translate(-573 -95)" lucid:page-tab-id="0_0">
    <path d="M683.7 339.5l.8 2.5 1 2.6 1 2.5 1.2 2.5 1.3 2.6 1.5 2.6 1.6 2.6 1.9 2.6 2 2.7 2.3 2.8 2.5 2.8 2.8 2.8 3.1 3 3.4 2.9 3.9 3 4.2 3.1 4.7 3.1 5.2 3.2 5.8 3.2 6.5 3.2 7 3.1 7.8 3.1 8.5 3 9.2 2.7 9.7 2.5 10.3 2.2 10.6 1.8 10.8 1.4 10.8.9 4.7.2v2l-4.8-.2-10.9-1-10.9-1.3-10.7-1.8-10.3-2.2-9.9-2.5-9.2-2.8-8.6-3-7.8-3.1-7.2-3.2-6.5-3.2-5.8-3.3-5.3-3.2-4.8-3.2-4.3-3-4-3.2-3.4-3-3.2-3-2.8-2.8-2.6-2.9-2.3-2.8-2.1-2.8-2-2.7-1.6-2.7-1.5-2.6-1.4-2.6-1.3-2.7-1-2.6-1-2.6-.9-2.6v-.2l1.9-.6zm272.3 8.2v1.8l-.2 2.6-.3 2.6-.3 2.5-.5 2.4-.6 2.3-.6 2.3-.7 2.2-.8 2.2-1 2-.9 2.2-1 2-1.3 2.1-1.2 2-1.4 2-1.5 2-1.7 2-1.8 2-2 2-2 2-2.4 2-2.5 2-2.7 2-3 2-3.3 2-3.6 1.9-4 2-4.3 1.9-4.8 1.9-5.4 1.8-5.8 1.8-6.4 1.7-7.1 1.5-7.8 1.3-3.3.4v-2l3-.4 7.7-1.3 7-1.5 6.4-1.6 5.7-1.8 5.2-1.8 4.8-1.9 4.3-1.9 3.9-1.9 3.5-2 3.2-1.9 3-2 2.6-1.9 2.5-2 2.2-1.8 2-2 2-1.9 1.7-2 1.6-1.8 1.4-2 1.4-2 1.2-1.9 1.2-2 1-2 1-2 .8-2 .8-2 .7-2.2.6-2.2.5-2.3.5-2.3.3-2.4.3-2.4.2-2.6v-1.7z"/>
    <path d="M956 347.8h-2v-1h2zM687 338l-9.2 1.3 2.6-14.8z"/>
    <path d="M688.6 338.8l-11.9 1.7 3.3-19.2zm-9.5-.7l6.5-1-4.7-9.4z"/>
    <use transform="translate(829.8 424.4)" xlink:href="#a"/>
    <path d="M792.4 151l-4.8.8-10 2.1-9.3 2.4-8.8 2.7-8 2.8-7.4 2.9-6.6 3-6 3-5.6 3-4.9 3-4.4 2.9-4 2.9-3.6 2.8-3.3 2.8-3 2.8-2.6 2.7-2.4 2.7-2.1 2.6-2 2.6-1.8 2.5-1.6 2.5-1.4 2.5-1.3 2.5-1.1 2.5-1 2.4-1 2.5-.8 2.4-.7 2.5-.6 2.5-.5 2.5-.3 2.6-.3 2.6-.2 2.6v1.7h-2v-1.8l.2-2.7.3-2.7.4-2.6.5-2.6.6-2.6.7-2.5.8-2.6 1-2.5 1-2.5 1.2-2.6 1.4-2.5 1.4-2.6 1.7-2.6 1.8-2.6 2-2.6 2.2-2.7 2.5-2.7 2.7-2.8 3-2.8 3.3-2.9 3.7-2.9 4-3 4.5-3 5-3 5.6-3 6-3 6.8-3 7.5-3 8.1-2.8 8.8-2.6 9.5-2.5 10-2.1 5.2-.9zm58.2-5.2l9.5.8 8.9 1.1 8.1 1.4 7.5 1.6 6.8 1.7 6.2 1.9 5.7 2 5 2 4.7 2 4.2 2.1 3.8 2.1 3.5 2.1 3.1 2.1 3 2.1 2.6 2.1 2.4 2 2.2 2.1 2 2.1 1.9 2 1.7 2.2 1.5 2 1.5 2.1 1.3 2 1.2 2.2 1.1 2.1 1 2.2 1 2.1.8 2.2.4 1.3-2 .6-.3-1.2-.8-2.1-.9-2.1-1-2.1-1-2-1.2-2-1.3-2-1.4-2-1.5-2-1.7-2-1.8-2-2-2-2-2.1-2.4-2-2.6-2-2.8-2.1-3-2-3.5-2.1-3.7-2-4.1-2.1-4.6-2-5-2-5.6-2-6.1-1.8-6.7-1.8-7.4-1.5-8.1-1.4-8.8-1.1-9.4-.8-10-.4h-4.8v-2h4.9z"/>
    <path d="M681 238.3v1h-2v-1zm273.5-21.5l-6.7-13.4 9.1-1.4z"/>
    <path d="M955 220l-8.7-17.4 11.9-1.8zm-5.7-15.8l4.7 9.4 1.7-10.4z"/>
    <use transform="translate(792.4 152.7)" xlink:href="#b"/>
    <path fill="#c1e4f7" stroke="#99d2f2" stroke-width="2" d="M620 245.3a5 5 0 015-5h110a5 5 0 015 5v70a5 5 0 01-5 5H625a5 5 0 01-5-5z"/>
    <use transform="translate(644 292.3)" xlink:href="#c"/>
    <path fill="#fff" d="M881.8 224.8h146.4v87.8H881.8v-87.8z"/>
    <path fill="#464655" d="M1024.9 220H885.1a5.1 5.1 0 00-5.1 5.2V308h150v-82.8c0-3-2.3-5.2-5.1-5.2zm-2.7 80.2H887.8v-72.5h134.4v72.5z"/>
    <path fill="#bec8dc" d="M880 318.3a5 5 0 005.1 5.1h139.8a5 5 0 005.1-5v-10.5H880v10.5zm75-6.6a4 4 0 013.9 4 4 4 0 01-3.9 4 4 4 0 01-3.9-4 4 4 0 013.9-4z"/>
    <path fill="#afbbd0" d="M932 341.5h46l-1.7-12.9h-42.6l-1.7 13z"/>
    <path fill="#bec8dc" d="M931.8 341.5c-1.5 0-2.6 1.2-2.6 2.7 0 1.4 1 2.5 2.5 2.5h46.5c1.5 0 2.6-1.1 2.6-2.5 0-1.5-1-2.7-2.5-2.7h-46.5z"/>
    <path fill="#96a5b9" d="M933.7 328.6h42.6l-.6-5.2h-41.4l-.6 5.2zm25.2-13a4 4 0 01-3.9 4 4 4 0 01-3.9-4 4 4 0 013.9-3.8 4 4 0 013.9 3.9z"/>
    <path fill="#e4eaf6" d="M904.9 240.5h14.7c.9 0 1.4.5 1.4 1.6v8.7c0 1-.5 1.5-1.4 1.5h-14.7c-.9 0-1.5-.5-1.5-1.5V242c0-1 .6-1.5 1.5-1.5zm0 35.3h14.7c.9 0 1.4.5 1.4 1.4v8.8c0 1-.5 1.4-1.4 1.4h-14.7c-.9 0-1.5-.4-1.5-1.4v-8.9c0-.9.6-1.4 1.5-1.4z"/>
    <path fill="#464655" d="M947.4 265v1.5l-.2 8.4c0 .7.8 1.2 1.5 1l2.5-1.2 2.3 5.2c.3.5.8.8 1.2.8l.6-.1c.6-.3.9-1 .6-1.7l-2.2-5.2 2.5-1.1c.8-.4.9-1.3.3-1.8l-6.8-6.1-.6-.5c-.7-.6-1.8-.1-1.8.8z"/>
    <path fill="none" d="M909.3 240.7h5.9v8.4h-5.9z"/>
    <use transform="translate(909.3 249)" xlink:href="#d"/>
    <path fill="none" d="M908.7 276.1h6.2v8.4h-6.2z"/>
    <use transform="translate(908.7 284.5)" xlink:href="#e"/>
    <path fill="none" d="M905.2 257.5H921v11.2h-15.8z"/>
    <use transform="translate(905.2 268.7)" xlink:href="#f"/>
    <defs>
      <path id="g" d="M285-1169c8 382 2 780 4 1169H129v-1349h237c86 239 188 461 253 720 69-258 169-481 255-720h225V0H937c2-390-5-788 6-1169-75 255-170 488-259 729H547c-90-240-185-475-262-729"/>
      <path id="h" d="M873-819c-18-114-119-146-250-146-163 0-245 50-245 151 0 151 170 148 294 185 182 54 388 94 388 320 0 240-189 325-439 329-245 4-410-69-454-268l159-31c24 133 136 168 295 165 144-2 270-31 270-171 0-164-195-160-331-202-167-52-350-87-350-299 0-218 173-315 413-313 220 2 373 77 412 260"/>
      <path id="i" d="M1048-32c-2 300-135 456-433 456-222-1-358-88-400-267l184-25c22 99 100 157 222 156 184-2 248-125 248-315 0-64 3-133-2-194C807-100 706-13 524-12c-306 0-381-228-381-537 0-318 85-550 400-550 164 0 271 83 325 202h3c1-60 3-134 12-185h171c-13 339-4 702-6 1050zM585-145c210-8 284-178 284-406 0-192-52-331-177-392-33-16-69-22-104-22-223 2-259 184-259 414 0 229 31 415 256 406"/>
      <path id="j" d="M875 0v-623H353V0H162v-1349h191v566h522v-566h191V0H875"/>
      <path id="k" d="M682 16c-209 0-323-80-324-285v-671H190v-142h170l58-282h120v282h432v142H538v652c2 114 60 155 182 155 106 0 209-16 297-34v137C921-4 806 16 682 16"/>
      <path id="l" d="M904-1102c199 0 220 177 220 381V0H956v-686c-3-114 0-215-60-264-70-33-125-4-158 71-26 56-39 140-39 252V0H531v-686c-3-114-1-215-61-264-78-41-136 24-157 84-24 69-39 159-39 259V0H105c-3-360 6-732-6-1082h149c6 50 3 123 8 175 36-100 83-195 216-195 135 0 166 79 196 196 42-105 93-196 236-196"/>
      <path id="m" d="M736-142h380V0H134v-142h422v-1200H267v-142h469v1342"/>
      <path id="n" d="M162 0v-1349h919v156H353v422h668v154H353v461h769V0H162"/>
      <path id="o" d="M0-79v-24h200v24H0"/>
      <path id="p" d="M118-107v75H92v-75H18v-26h74v-75h26v75h74v26h-74"/>
      <path id="q" d="M27 0v-27h64v-190l-56 39v-29l58-41h29v221h61V0H27"/>
      <path id="r" d="M155-56V0h-30v-56H8v-25l114-167h33v167h35v25h-35zm-30-156c-27 46-58 90-88 131h88v-131"/>
      <g id="a">
        <use transform="scale(.01085)" xlink:href="#g"/>
        <use transform="translate(13.3) scale(.01085)" xlink:href="#h"/>
        <use transform="translate(26.7) scale(.01085)" xlink:href="#i"/>
      </g>
      <g id="b">
        <use transform="rotate(.8) scale(.00879)" xlink:href="#j"/>
        <use transform="matrix(.00879 0 0 .00879 10.8 0)" xlink:href="#k"/>
        <use transform="matrix(.00879 0 0 .00879 21.6 0)" xlink:href="#l"/>
        <use transform="matrix(.00879 0 0 .00879 32.4 0)" xlink:href="#m"/>
      </g>
      <g id="c">
        <use transform="scale(.01953)" xlink:href="#n"/>
        <use transform="translate(24) scale(.01953)" xlink:href="#m"/>
        <use transform="translate(48) scale(.01953)" xlink:href="#l"/>
      </g>
      <g id="f">
        <use transform="scale(.03906)" xlink:href="#q"/>
        <use transform="matrix(.03906 0 0 .03906 7.8 0)" xlink:href="#r"/>
      </g>
      <use id="d" transform="scale(.0293)" xlink:href="#o"/>
      <use id="e" transform="scale(.0293)" xlink:href="#p"/>
    </defs>
  </g>
</svg>